<svg width="34" height="34" viewBox="0 0 34 34" fill="none" xmlns="http://www.w3.org/2000/svg">
<path d="M32.2 1.8C31.2462 0.894987 29.9815 0.390464 28.6667 0.390464C27.3519 0.390464 26.0872 0.894987 25.1334 1.8L21.1 5.81667C20.3747 6.55026 19.8941 7.49023 19.724 8.50772C19.5539 9.52521 19.7027 10.5704 20.15 11.5L16.5667 15.0833L13.2334 11.75C12.632 11.1342 11.8819 10.684 11.0556 10.4431C10.2293 10.2021 9.35479 10.1785 8.51671 10.3747C7.67863 10.5708 6.90537 10.9799 6.27176 11.5625C5.63815 12.145 5.16566 12.8813 4.90002 13.7L0.466688 27.0333C0.172069 27.9135 0.128277 28.8584 0.340214 29.762C0.552152 30.6657 1.01145 31.4926 1.66669 32.15C2.14201 32.6396 2.71254 33.0268 3.34313 33.2876C3.97372 33.5485 4.65103 33.6775 5.33336 33.6667C5.90033 33.6773 6.46467 33.587 7.00002 33.4L20.3334 28.9667C21.1521 28.701 21.8883 28.2285 22.4709 27.5949C23.0534 26.9613 23.4626 26.1881 23.6587 25.35C23.8548 24.5119 23.8313 23.6374 23.5903 22.8111C23.3494 21.9848 22.8992 21.2347 22.2834 20.6333L18.95 17.3L22.5334 13.7167C23.4629 14.164 24.5081 14.3128 25.5256 14.1427C26.5431 13.9726 27.4831 13.492 28.2167 12.7667L32.2334 8.73333C33.1252 7.7975 33.6198 6.55264 33.6136 5.25995C33.6074 3.96726 33.1008 2.72722 32.2 1.8ZM19.8334 23.05C20.0317 23.2521 20.1753 23.5014 20.2506 23.7743C20.3259 24.0473 20.3304 24.3349 20.2636 24.6101C20.1969 24.8853 20.0612 25.139 19.8693 25.3471C19.6774 25.5553 19.4356 25.7112 19.1667 25.8L5.86669 30.3333C5.57723 30.4218 5.26916 30.4297 4.97553 30.3563C4.68191 30.2829 4.41381 30.1309 4.20002 29.9167C3.98579 29.7029 3.83381 29.4348 3.7604 29.1412C3.687 28.8475 3.69493 28.5395 3.78336 28.25L8.23336 14.9167C8.29679 14.6224 8.43876 14.3507 8.64418 14.1307C8.8496 13.9106 9.11079 13.7502 9.40002 13.6667C9.52743 13.6529 9.65595 13.6529 9.78336 13.6667C10.2206 13.6685 10.6396 13.8421 10.95 14.15L14.2834 17.4833L12.8334 18.9167C12.6771 19.0716 12.5532 19.2559 12.4685 19.459C12.3839 19.6621 12.3404 19.88 12.3404 20.1C12.3404 20.32 12.3839 20.5379 12.4685 20.741C12.5532 20.9441 12.6771 21.1284 12.8334 21.2833C12.9883 21.4395 13.1726 21.5635 13.3757 21.6482C13.5788 21.7328 13.7967 21.7763 14.0167 21.7763C14.2367 21.7763 14.4546 21.7328 14.6577 21.6482C14.8607 21.5635 15.0451 21.4395 15.2 21.2833L16.6334 19.8333L19.8334 23.05ZM29.8334 6.51667L25.8167 10.5333C25.5827 10.7627 25.2863 10.918 24.9646 10.9798C24.6429 11.0417 24.31 11.0073 24.0077 10.881C23.7054 10.7548 23.447 10.5422 23.2648 10.2699C23.0826 9.99759 22.9847 9.67763 22.9834 9.35C22.9852 8.91277 23.1588 8.49377 23.4667 8.18333L27.4834 4.15C27.6383 3.99379 27.8226 3.8698 28.0257 3.78518C28.2288 3.70057 28.4467 3.657 28.6667 3.657C28.8867 3.657 29.1046 3.70057 29.3076 3.78518C29.5107 3.8698 29.6951 3.99379 29.85 4.15C30.0062 4.30494 30.1302 4.48927 30.2148 4.69237C30.2995 4.89547 30.343 5.11331 30.343 5.33333C30.343 5.55335 30.2995 5.7712 30.2148 5.97429C30.1302 6.17739 30.0062 6.36173 29.85 6.51667H29.8334Z" fill="#1A1A1A"/>
</svg>
