<svg width="34" height="36" viewBox="0 0 34 36" fill="none" xmlns="http://www.w3.org/2000/svg">
<path d="M30.3334 14.1167V13.8333C30.3435 10.9982 29.4439 8.23465 27.767 5.94868C26.09 3.66272 23.724 1.97493 21.0167 1.13333H20.9167C19.5184 0.707049 18.0616 0.504549 16.6 0.533327C13.1197 0.724314 9.84352 2.23624 7.44002 4.76054C5.03652 7.28483 3.68693 10.6312 3.66669 14.1167C2.69004 14.4602 1.84413 15.0985 1.24572 15.9434C0.647314 16.7882 0.325928 17.798 0.325928 18.8333C0.325928 19.8686 0.647314 20.8784 1.24572 21.7233C1.84413 22.5682 2.69004 23.2064 3.66669 23.55C4.00997 26.8413 5.56489 29.8873 8.02915 32.0959C10.4934 34.3045 13.6909 35.5178 17 35.5H17.3834C20.5833 35.3451 23.6249 34.0614 25.9682 31.8768C28.3114 29.6922 29.8049 26.7479 30.1834 23.5667C31.1715 23.2425 32.034 22.6183 32.6507 21.781C33.2675 20.9437 33.6078 19.9349 33.6243 18.8951C33.6408 17.8553 33.3327 16.8362 32.7428 15.9797C32.153 15.1232 31.3107 14.472 30.3334 14.1167ZM17.3 32.1667C14.8874 32.2365 12.5309 31.4313 10.6654 29.8997C8.79988 28.3681 7.5513 26.2134 7.15003 23.8333H26.7667C26.3599 26.0865 25.2033 28.1359 23.4847 29.6488C21.7662 31.1616 19.5866 32.0489 17.3 32.1667ZM28.6667 20.5H5.33336C4.89133 20.5 4.46741 20.3244 4.15485 20.0118C3.84229 19.6993 3.66669 19.2754 3.66669 18.8333C3.66669 18.3913 3.84229 17.9674 4.15485 17.6548C4.46741 17.3423 4.89133 17.1667 5.33336 17.1667H8.66669C9.10872 17.1667 9.53265 16.9911 9.84521 16.6785C10.1578 16.3659 10.3334 15.942 10.3334 15.5C10.3334 15.058 10.1578 14.634 9.84521 14.3215C9.53265 14.0089 9.10872 13.8333 8.66669 13.8333H7.00003C7.07463 12.1043 7.5688 10.4195 8.43989 8.92411C9.31098 7.42873 10.5328 6.16776 12 5.24999V10.5C12 10.942 12.1756 11.3659 12.4882 11.6785C12.8007 11.9911 13.2247 12.1667 13.6667 12.1667C14.1087 12.1667 14.5326 11.9911 14.8452 11.6785C15.1578 11.3659 15.3334 10.942 15.3334 10.5V3.98333C15.7857 3.90775 16.242 3.85767 16.7 3.83333H17C17.5586 3.84119 18.1157 3.89134 18.6667 3.98333V10.5C18.6667 10.942 18.8423 11.3659 19.1549 11.6785C19.4674 11.9911 19.8913 12.1667 20.3334 12.1667C20.7754 12.1667 21.1993 11.9911 21.5119 11.6785C21.8244 11.3659 22 10.942 22 10.5V5.19999C22.707 5.60937 23.3666 6.09566 23.9667 6.64999C24.9276 7.58316 25.6913 8.69986 26.2124 9.93382C26.7334 11.1678 27.0013 12.4939 27 13.8333H25.3334C24.8913 13.8333 24.4674 14.0089 24.1549 14.3215C23.8423 14.634 23.6667 15.058 23.6667 15.5C23.6667 15.942 23.8423 16.3659 24.1549 16.6785C24.4674 16.9911 24.8913 17.1667 25.3334 17.1667H28.6667C29.1087 17.1667 29.5326 17.3423 29.8452 17.6548C30.1578 17.9674 30.3334 18.3913 30.3334 18.8333C30.3334 19.2754 30.1578 19.6993 29.8452 20.0118C29.5326 20.3244 29.1087 20.5 28.6667 20.5Z" fill="#1A1A1A"/>
</svg>
