<svg width="34" height="34" viewBox="0 0 34 34" fill="none" xmlns="http://www.w3.org/2000/svg">
<path d="M20.3333 10.3333H22C22.442 10.3333 22.8659 10.1577 23.1785 9.84516C23.4911 9.5326 23.6666 9.10867 23.6666 8.66665C23.6666 8.22462 23.4911 7.8007 23.1785 7.48814C22.8659 7.17558 22.442 6.99998 22 6.99998H20.3333C19.8913 6.99998 19.4674 7.17558 19.1548 7.48814C18.8422 7.8007 18.6666 8.22462 18.6666 8.66665C18.6666 9.10867 18.8422 9.5326 19.1548 9.84516C19.4674 10.1577 19.8913 10.3333 20.3333 10.3333ZM20.3333 17H22C22.442 17 22.8659 16.8244 23.1785 16.5118C23.4911 16.1993 23.6666 15.7753 23.6666 15.3333C23.6666 14.8913 23.4911 14.4674 23.1785 14.1548C22.8659 13.8422 22.442 13.6666 22 13.6666H20.3333C19.8913 13.6666 19.4674 13.8422 19.1548 14.1548C18.8422 14.4674 18.6666 14.8913 18.6666 15.3333C18.6666 15.7753 18.8422 16.1993 19.1548 16.5118C19.4674 16.8244 19.8913 17 20.3333 17ZM12 10.3333H13.6666C14.1087 10.3333 14.5326 10.1577 14.8452 9.84516C15.1577 9.5326 15.3333 9.10867 15.3333 8.66665C15.3333 8.22462 15.1577 7.8007 14.8452 7.48814C14.5326 7.17558 14.1087 6.99998 13.6666 6.99998H12C11.558 6.99998 11.134 7.17558 10.8215 7.48814C10.5089 7.8007 10.3333 8.22462 10.3333 8.66665C10.3333 9.10867 10.5089 9.5326 10.8215 9.84516C11.134 10.1577 11.558 10.3333 12 10.3333ZM12 17H13.6666C14.1087 17 14.5326 16.8244 14.8452 16.5118C15.1577 16.1993 15.3333 15.7753 15.3333 15.3333C15.3333 14.8913 15.1577 14.4674 14.8452 14.1548C14.5326 13.8422 14.1087 13.6666 13.6666 13.6666H12C11.558 13.6666 11.134 13.8422 10.8215 14.1548C10.5089 14.4674 10.3333 14.8913 10.3333 15.3333C10.3333 15.7753 10.5089 16.1993 10.8215 16.5118C11.134 16.8244 11.558 17 12 17ZM32 30.3333H30.3333V1.99998C30.3333 1.55795 30.1577 1.13403 29.8452 0.821468C29.5326 0.508908 29.1087 0.333313 28.6666 0.333313H5.33331C4.89129 0.333313 4.46736 0.508908 4.1548 0.821468C3.84224 1.13403 3.66665 1.55795 3.66665 1.99998V30.3333H1.99998C1.55795 30.3333 1.13403 30.5089 0.821468 30.8215C0.508908 31.134 0.333313 31.558 0.333313 32C0.333313 32.442 0.508908 32.8659 0.821468 33.1785C1.13403 33.4911 1.55795 33.6666 1.99998 33.6666H32C32.442 33.6666 32.8659 33.4911 33.1785 33.1785C33.4911 32.8659 33.6666 32.442 33.6666 32C33.6666 31.558 33.4911 31.134 33.1785 30.8215C32.8659 30.5089 32.442 30.3333 32 30.3333ZM18.6666 30.3333H15.3333V23.6666H18.6666V30.3333ZM27 30.3333H22V22C22 21.558 21.8244 21.134 21.5118 20.8215C21.1993 20.5089 20.7753 20.3333 20.3333 20.3333H13.6666C13.2246 20.3333 12.8007 20.5089 12.4881 20.8215C12.1756 21.134 12 21.558 12 22V30.3333H6.99998V3.66665H27V30.3333Z" fill="#1A1A1A"/>
</svg>
