<svg width="38" height="30" viewBox="0 0 38 30" fill="none" xmlns="http://www.w3.org/2000/svg">
<path d="M32.3334 0.833344H5.66669C4.3406 0.833344 3.06883 1.36013 2.13115 2.29781C1.19347 3.23549 0.666687 4.50726 0.666687 5.83334V27.5C0.666687 27.942 0.842282 28.366 1.15484 28.6785C1.4674 28.9911 1.89133 29.1667 2.33335 29.1667H9.00002C9.27453 29.1653 9.54444 29.0961 9.78577 28.9652C10.0271 28.8344 10.2324 28.6459 10.3834 28.4167L13.2334 24.1667H24.7667L27.6167 28.4167C27.7677 28.6459 27.9729 28.8344 28.2143 28.9652C28.4556 29.0961 28.7255 29.1653 29 29.1667H35.6667C36.1087 29.1667 36.5326 28.9911 36.8452 28.6785C37.1578 28.366 37.3334 27.942 37.3334 27.5V5.83334C37.3334 4.50726 36.8066 3.23549 35.8689 2.29781C34.9312 1.36013 33.6594 0.833344 32.3334 0.833344ZM34 25.8333H29.9L27.05 21.6667C26.909 21.4219 26.708 21.217 26.466 21.0713C26.224 20.9255 25.949 20.8436 25.6667 20.8333H12.3334C12.0588 20.8348 11.7889 20.904 11.5476 21.0348C11.3063 21.1657 11.101 21.3541 10.95 21.5833L8.10002 25.8333H4.00002V17.5H34V25.8333ZM10.6667 14.1667V12.5C10.6667 12.058 10.8423 11.6341 11.1548 11.3215C11.4674 11.0089 11.8913 10.8333 12.3334 10.8333H15.6667C16.1087 10.8333 16.5326 11.0089 16.8452 11.3215C17.1578 11.6341 17.3334 12.058 17.3334 12.5V14.1667H10.6667ZM20.6667 14.1667V12.5C20.6667 12.058 20.8423 11.6341 21.1548 11.3215C21.4674 11.0089 21.8913 10.8333 22.3334 10.8333H25.6667C26.1087 10.8333 26.5326 11.0089 26.8452 11.3215C27.1578 11.6341 27.3334 12.058 27.3334 12.5V14.1667H20.6667ZM34 14.1667H30.6667V12.5C30.6667 11.1739 30.1399 9.90216 29.2022 8.96448C28.2645 8.02679 26.9928 7.50001 25.6667 7.50001H22.3334C21.0999 7.50736 19.9127 7.97036 19 8.80001C18.0873 7.97036 16.9001 7.50736 15.6667 7.50001H12.3334C11.0073 7.50001 9.7355 8.02679 8.79782 8.96448C7.86014 9.90216 7.33335 11.1739 7.33335 12.5V14.1667H4.00002V5.83334C4.00002 5.39132 4.17561 4.96739 4.48818 4.65483C4.80074 4.34227 5.22466 4.16668 5.66669 4.16668H32.3334C32.7754 4.16668 33.1993 4.34227 33.5119 4.65483C33.8244 4.96739 34 5.39132 34 5.83334V14.1667Z" fill="#1A1A1A"/>
</svg>

