<svg width="153" height="38" viewBox="0 0 153 38" fill="none" xmlns="http://www.w3.org/2000/svg">
<path d="M28.3661 15.3056C28.3661 16.7493 28.3893 18.1697 28.3661 19.6134C28.2962 22.3144 27.6675 24.8758 26.6662 27.3673C26.4567 27.8563 26.2005 28.3453 25.8978 28.7877C24.9897 30.1383 23.9186 31.3724 22.731 32.4435C21.9859 33.1188 21.1476 33.631 20.193 33.9338C19.215 34.2365 18.237 34.5392 17.2357 34.772C15.7688 35.1446 14.2785 35.0049 12.8115 34.7487C12.5088 34.7022 12.1828 34.6323 11.8801 34.5625C10.3666 34.2597 9.01606 33.6543 7.82851 32.6531C6.36155 31.419 4.84801 30.2081 3.84674 28.5316C2.93862 27.018 2.0305 25.5045 1.49494 23.7814C1.09909 22.4541 0.656672 21.1502 0.307394 19.8229C0.144398 19.1709 0.0279717 18.4025 0.0046865 17.6807C-0.0185987 16.563 0.0512569 15.4453 0.0745421 14.3276C0.0978273 13.4661 0.0745421 12.6045 0.0978273 11.7662C0.0978273 11.4868 0.0745421 11.2074 0.0978273 10.928C0.144398 10.0897 0.749813 9.76372 1.44837 10.2294C1.93736 10.5787 2.40306 10.9745 2.77562 11.417C3.52075 12.2785 4.19602 13.1866 4.89458 14.0715C5.337 14.6536 5.73285 15.259 6.17526 15.8412C6.50126 16.2603 6.8971 16.6561 7.29295 17.0054C7.94494 17.5643 8.43393 17.4944 8.87635 16.726C9.17905 16.2137 9.41191 15.6549 9.59819 15.096C10.3433 12.8141 11.0884 10.5321 11.8103 8.25018C12.276 6.78321 12.8115 5.36281 13.5101 3.98899C13.6265 3.73285 13.7662 3.5 13.9758 3.29043C14.3949 2.84801 15.0469 2.91787 15.3263 3.45343C15.4893 3.77942 15.6058 4.19855 15.6291 4.57112C15.6989 5.43267 15.6989 6.29422 15.7455 7.13249C15.8852 9.25144 16.1413 11.3471 16.6303 13.4195C16.7235 13.8386 16.8865 14.2345 17.0494 14.6303C17.3289 15.259 17.7713 15.748 18.3534 16.1206C18.726 16.3767 19.1218 16.4233 19.5177 16.1671C19.9135 15.911 20.2861 15.6316 20.6121 15.3056C21.5901 14.3509 22.4283 13.3031 23.1502 12.1155C23.8953 10.8814 24.6404 9.67058 25.3856 8.43646C25.5951 8.08718 25.828 7.7379 26.1074 7.4352C26.6895 6.8065 27.4579 6.94621 27.8072 7.7379C28.1332 8.5296 28.2263 9.41444 28.2496 10.2527C28.3428 11.906 28.3661 13.5592 28.4359 15.2125C28.4126 15.3056 28.3893 15.3056 28.3661 15.3056Z" fill="#F15A24"/>
<path d="M43.7733 7.46094V29.5H38.4603V7.46094H43.7733ZM52.3407 16.6338V20.7207H42.2596V16.6338H52.3407ZM53.2035 7.46094V11.563H42.2596V7.46094H53.2035ZM67.3715 7.46094H72.6844V21.856C72.6844 23.5715 72.3262 25.0246 71.6097 26.2153C70.8933 27.396 69.8892 28.2891 68.5975 28.8945C67.3059 29.5 65.7872 29.8027 64.0414 29.8027C62.3158 29.8027 60.7971 29.5 59.4852 28.8945C58.1835 28.2891 57.1643 27.396 56.4276 26.2153C55.701 25.0246 55.3378 23.5715 55.3378 21.856V7.46094H60.6659V21.856C60.6659 22.7642 60.7971 23.5059 61.0594 24.0811C61.3218 24.6462 61.7053 25.0599 62.2098 25.3223C62.7144 25.5846 63.3249 25.7158 64.0414 25.7158C64.7679 25.7158 65.3785 25.5846 65.8729 25.3223C66.3674 25.0599 66.7408 24.6462 66.993 24.0811C67.2453 23.5059 67.3715 22.7642 67.3715 21.856V7.46094ZM86.701 7.46094V29.5H81.3881V7.46094H86.701ZM93.3309 7.46094V11.563H74.9095V7.46094H93.3309ZM107.544 7.46094H112.857V21.856C112.857 23.5715 112.499 25.0246 111.783 26.2153C111.066 27.396 110.062 28.2891 108.77 28.8945C107.479 29.5 105.96 29.8027 104.214 29.8027C102.489 29.8027 100.97 29.5 99.6581 28.8945C98.3563 28.2891 97.3371 27.396 96.6005 26.2153C95.8739 25.0246 95.5106 23.5715 95.5106 21.856V7.46094H100.839V21.856C100.839 22.7642 100.97 23.5059 101.232 24.0811C101.495 24.6462 101.878 25.0599 102.383 25.3223C102.887 25.5846 103.498 25.7158 104.214 25.7158C104.941 25.7158 105.551 25.5846 106.046 25.3223C106.54 25.0599 106.914 24.6462 107.166 24.0811C107.418 23.5059 107.544 22.7642 107.544 21.856V7.46094ZM116.203 7.46094H124.876C126.571 7.46094 128.044 7.71322 129.296 8.21777C130.547 8.72233 131.511 9.46908 132.187 10.458C132.873 11.4469 133.216 12.668 133.216 14.1211C133.216 15.3825 133.019 16.437 132.626 17.2847C132.232 18.1323 131.682 18.8337 130.976 19.3887C130.28 19.9336 129.467 20.3826 128.539 20.7358L126.798 21.7197H119.517L119.487 17.6177H124.876C125.552 17.6177 126.112 17.4966 126.556 17.2544C127 17.0122 127.333 16.6691 127.555 16.2251C127.787 15.771 127.903 15.2311 127.903 14.6055C127.903 13.9697 127.787 13.4248 127.555 12.9707C127.323 12.5166 126.98 12.1685 126.526 11.9263C126.082 11.6841 125.532 11.563 124.876 11.563H121.516V29.5H116.203V7.46094ZM128.266 29.5L123.392 19.752L129.023 19.7217L133.958 29.2729V29.5H128.266ZM151.592 25.4131V29.5H139.846V25.4131H151.592ZM141.738 7.46094V29.5H136.425V7.46094H141.738ZM150.078 16.21V20.1606H139.846V16.21H150.078ZM151.638 7.46094V11.563H139.846V7.46094H151.638Z" fill="#1A1A1A"/>
</svg>
